<mxfile host="app.diagrams.net" modified="2022-07-01T05:57:26.947Z" agent="5.0 (Windows NT 10.0; Win64; x64) AppleWebKit/537.36 (KHTML, like Gecko) Chrome/102.0.0.0 Safari/537.36" etag="YRHC7p8GIUYO9ahCxCHm" version="20.0.4" type="github">
  <diagram id="C5RBs43oDa-KdzZeNtuy" name="Page-1">
    <mxGraphModel dx="1185" dy="655" grid="1" gridSize="10" guides="1" tooltips="1" connect="1" arrows="1" fold="1" page="1" pageScale="1" pageWidth="827" pageHeight="1169" math="0" shadow="0">
      <root>
        <mxCell id="WIyWlLk6GJQsqaUBKTNV-0" />
        <mxCell id="WIyWlLk6GJQsqaUBKTNV-1" parent="WIyWlLk6GJQsqaUBKTNV-0" />
        <mxCell id="cCN0tTdBYzVjqLH-nszh-0" value="ProductionBillServiceImpl" style="swimlane;fillColor=#f5f5f5;strokeColor=#666666;fontColor=#333333;startSize=23;" parent="WIyWlLk6GJQsqaUBKTNV-1" vertex="1">
          <mxGeometry x="36" y="363" width="200" height="50" as="geometry">
            <mxRectangle x="36" y="363" width="200" height="30" as="alternateBounds" />
          </mxGeometry>
        </mxCell>
        <mxCell id="cCN0tTdBYzVjqLH-nszh-1" value="QualityTestingBillServiceImpl" style="swimlane;fillColor=#f5f5f5;strokeColor=#666666;fontColor=#333333;" parent="WIyWlLk6GJQsqaUBKTNV-1" vertex="1">
          <mxGeometry x="324" y="361" width="206" height="48" as="geometry">
            <mxRectangle x="324" y="361" width="220" height="30" as="alternateBounds" />
          </mxGeometry>
        </mxCell>
        <mxCell id="cCN0tTdBYzVjqLH-nszh-2" value="MaterialRequisitionServiceImpl" style="swimlane;fillColor=#f5f5f5;strokeColor=#666666;fontColor=#333333;" parent="WIyWlLk6GJQsqaUBKTNV-1" vertex="1">
          <mxGeometry x="599" y="362" width="211" height="48" as="geometry">
            <mxRectangle x="599" y="362" width="220" height="30" as="alternateBounds" />
          </mxGeometry>
        </mxCell>
        <mxCell id="cCN0tTdBYzVjqLH-nszh-3" value="QualityTestingBillService" style="swimlane;fillColor=#e1d5e7;strokeColor=#9673a6;" parent="WIyWlLk6GJQsqaUBKTNV-1" vertex="1">
          <mxGeometry x="324" y="260" width="200" height="48" as="geometry">
            <mxRectangle x="324" y="260" width="190" height="30" as="alternateBounds" />
          </mxGeometry>
        </mxCell>
        <mxCell id="cCN0tTdBYzVjqLH-nszh-5" value="MaterialRequisitionService" style="swimlane;fillColor=#e1d5e7;strokeColor=#9673a6;" parent="WIyWlLk6GJQsqaUBKTNV-1" vertex="1">
          <mxGeometry x="599" y="260" width="200" height="48" as="geometry">
            <mxRectangle x="599" y="260" width="190" height="30" as="alternateBounds" />
          </mxGeometry>
        </mxCell>
        <mxCell id="cCN0tTdBYzVjqLH-nszh-6" value="ProductionBillService" style="swimlane;fillColor=#e1d5e7;strokeColor=#9673a6;" parent="WIyWlLk6GJQsqaUBKTNV-1" vertex="1">
          <mxGeometry x="36" y="260" width="200" height="50" as="geometry">
            <mxRectangle x="36" y="260" width="170" height="30" as="alternateBounds" />
          </mxGeometry>
        </mxCell>
        <mxCell id="cCN0tTdBYzVjqLH-nszh-7" value="BaseService" style="swimlane;fillColor=#e1d5e7;strokeColor=#9673a6;" parent="WIyWlLk6GJQsqaUBKTNV-1" vertex="1">
          <mxGeometry x="324" y="140" width="200" height="51" as="geometry">
            <mxRectangle x="324" y="140" width="110" height="30" as="alternateBounds" />
          </mxGeometry>
        </mxCell>
        <mxCell id="cCN0tTdBYzVjqLH-nszh-14" value="" style="endArrow=classic;html=1;strokeColor=default;curved=1;" parent="WIyWlLk6GJQsqaUBKTNV-1" edge="1">
          <mxGeometry width="50" height="50" relative="1" as="geometry">
            <mxPoint x="430" y="360" as="sourcePoint" />
            <mxPoint x="430" y="310" as="targetPoint" />
          </mxGeometry>
        </mxCell>
        <mxCell id="cCN0tTdBYzVjqLH-nszh-15" value="" style="endArrow=classic;html=1;strokeColor=default;curved=1;exitX=0.5;exitY=0;exitDx=0;exitDy=0;" parent="WIyWlLk6GJQsqaUBKTNV-1" source="cCN0tTdBYzVjqLH-nszh-0" edge="1">
          <mxGeometry width="50" height="50" relative="1" as="geometry">
            <mxPoint x="100" y="361" as="sourcePoint" />
            <mxPoint x="136" y="310" as="targetPoint" />
          </mxGeometry>
        </mxCell>
        <mxCell id="cCN0tTdBYzVjqLH-nszh-16" value="" style="endArrow=classic;html=1;strokeColor=default;curved=1;entryX=0.5;entryY=1;entryDx=0;entryDy=0;exitX=0.5;exitY=0;exitDx=0;exitDy=0;" parent="WIyWlLk6GJQsqaUBKTNV-1" source="cCN0tTdBYzVjqLH-nszh-2" target="cCN0tTdBYzVjqLH-nszh-5" edge="1">
          <mxGeometry width="50" height="50" relative="1" as="geometry">
            <mxPoint x="680" y="360" as="sourcePoint" />
            <mxPoint x="730" y="310" as="targetPoint" />
          </mxGeometry>
        </mxCell>
        <mxCell id="cCN0tTdBYzVjqLH-nszh-18" value="" style="endArrow=classic;html=1;strokeColor=default;curved=1;entryX=0.25;entryY=1;entryDx=0;entryDy=0;" parent="WIyWlLk6GJQsqaUBKTNV-1" target="cCN0tTdBYzVjqLH-nszh-7" edge="1">
          <mxGeometry width="50" height="50" relative="1" as="geometry">
            <mxPoint x="140" y="260" as="sourcePoint" />
            <mxPoint x="170" y="210" as="targetPoint" />
          </mxGeometry>
        </mxCell>
        <mxCell id="cCN0tTdBYzVjqLH-nszh-19" value="" style="endArrow=classic;html=1;strokeColor=default;curved=1;exitX=0.5;exitY=0;exitDx=0;exitDy=0;entryX=0.5;entryY=1;entryDx=0;entryDy=0;" parent="WIyWlLk6GJQsqaUBKTNV-1" source="cCN0tTdBYzVjqLH-nszh-3" target="cCN0tTdBYzVjqLH-nszh-7" edge="1">
          <mxGeometry width="50" height="50" relative="1" as="geometry">
            <mxPoint x="410" y="250" as="sourcePoint" />
            <mxPoint x="460" y="200" as="targetPoint" />
          </mxGeometry>
        </mxCell>
        <mxCell id="cCN0tTdBYzVjqLH-nszh-20" value="" style="endArrow=classic;html=1;strokeColor=default;curved=1;exitX=0.5;exitY=0;exitDx=0;exitDy=0;entryX=0.75;entryY=1;entryDx=0;entryDy=0;" parent="WIyWlLk6GJQsqaUBKTNV-1" source="cCN0tTdBYzVjqLH-nszh-5" target="cCN0tTdBYzVjqLH-nszh-7" edge="1">
          <mxGeometry width="50" height="50" relative="1" as="geometry">
            <mxPoint x="680" y="250" as="sourcePoint" />
            <mxPoint x="730" y="200" as="targetPoint" />
          </mxGeometry>
        </mxCell>
      </root>
    </mxGraphModel>
  </diagram>
</mxfile>
